# xmcd
#
# Track frame offsets:
#	150
#	15705
#	30167
#	43991
#	59691
#	76134
#	91313
#	106130
#	120717
#	134682
#	148575
#	162957
#	178031
#	192458
#	208354
#	223324
#	238760
#
# Disc length: 3384 seconds
# Revision: 1
# Processed by: cddbd v1.5.2PL0 Copyright (c) Steve Scherf et al.
# Submitted via: dBpowerAMP V12.0
#
DISCID=000d3611
DTITLE=Various Artist - Legends of Country Blues, Disc 4
DYEAR=2003
DGENRE=Blues
TTITLE0=Tommy Johnson - Cool Drink of Water Blues
TTITLE1=Tommy Johnson - Big Road Blues
TTITLE2=Tommy Johnson - Bye Bye Blues
TTITLE3=Tommy Johnson - Maggie Campbell Blues
TTITLE4=Tommy Johnson - Canned Heat Blues
TTITLE5=Tommy Johnson - Lonesome Home Blues
TTITLE6=Tommy Johnson - Lonesome Home Blues
TTITLE7=Tommy Johnson - Big Fat Mama Blues
TTITLE8=Tommy Johnson - I Wonder to Myself
TTITLE9=Tommy Johnson - Slidin' Delta
TTITLE10=Tommy Johnson - Lonesome Home Blues
TTITLE11=Tommy Johnson - Untitled (Morning Prayer Blues)
TTITLE12=Tommy Johnson - Untitled (Boogaloosa Woman)
TTITLE13=Tommy Johnson and The New Orleans Nehi Boys - Black Mare Blues
TTITLE14=Tommy Johnson and The New Orleans Nehi Boys - Black Mare Blues
TTITLE15=Tommy Johnson - Ridin' Horse
TTITLE16=Tommy Johnson - Alcohol and Jake Blues
EXTD=
EXTT0=
EXTT1=
EXTT2=
EXTT3=
EXTT4=
EXTT5=
EXTT6=
EXTT7=
EXTT8=
EXTT9=
EXTT10=
EXTT11=
EXTT12=
EXTT13=
EXTT14=
EXTT15=
EXTT16=
PLAYORDER=
